# xmcd
#
# Track frame offsets: 
#        182
#        18685
#        34640
#        49425
#        59610
#        74220
#        87347
#        98992
#        110097
#        121435
#        134802
#        146145
#        162690
#        177115
#        190627
#        206345
#        218542
#        235652
#        247487
#        260240
#
# Disc length: 3618 seconds
#
# Revision: 7
# Processed by: cddbd v1.5.2PL0 Copyright (c) Steve Scherf et al.
# Submitted via: ExactAudioCopy v1.0b1
#
DISCID=490e2014
DTITLE=Various Artist - Legends Of Country Music Disc 2
DYEAR=1993
DGENRE=Country
TTITLE0=K.T. Oslin - Do Ya
TTITLE1=Willie Nelson - Always On My Mind
TTITLE2=Cristy Lane - One Day At A Time
TTITLE3=Statler Brothers - Do You Know You Are My Sunshine
TTITLE4=Waylon Jennings - Luckenbach Texas (Back To The Basics Of Love
TTITLE4=)
TTITLE5=Lynn Anderson - (I Never Promised You A) Rose Garden
TTITLE6=Jack Greene - There Goes My Everything
TTITLE7=Roger Miller - King Of The Road
TTITLE8=Marty Robbins - A White Sport Coat (And A Pink Carnation)
TTITLE9=Hank Snow - I Don't Hurt Anymore
TTITLE10=Highway 101 - Cry Cry Cry
TTITLE11=Tanya Tucker With Paul Davis And Paul Overstreet - I Won't Ta
TTITLE11=ke Less Than Your Love
TTITLE12=Larry Gatlin And The Gatlin Brothers - Houston (Means I'm One
TTITLE12=Day Closer To You)
TTITLE13=Ricky Skaggs - Crying My Heart Out Over You
TTITLE14=Dottie West - Are You Happy Baby
TTITLE15=Merle Haggard - If We Make It Through December
TTITLE16=Ray Price - For The Good Times
TTITLE17=Johnny Cash - Ring Of Fire
TTITLE18=Johnny Horton - North To Alaska
TTITLE19=Sonny James - Young Love
EXTD=Legends of Country Music.\n3 Disc Set\n(c) 1993 CEMA Special Mark
EXTD=ets\nProduct of CEMA Special Markets, a division of Capitol Recor
EXTD=ds, Inc. All Rights Reserved.\n
EXTT0=
EXTT1=
EXTT2=
EXTT3=
EXTT4=
EXTT5=
EXTT6=
EXTT7=
EXTT8=
EXTT9=
EXTT10=
EXTT11=
EXTT12=
EXTT13=
EXTT14=
EXTT15=
EXTT16=
EXTT17=
EXTT18=
EXTT19=
PLAYORDER=
